<?xml version="1.0" encoding="utf-8"?>
<!-- Generator: Adobe Illustrator 21.1.0, SVG Export Plug-In . SVG Version: 6.00 Build 0)  -->
<svg version="1.1" id="Layer_1" xmlns="http://www.w3.org/2000/svg" xmlns:xlink="http://www.w3.org/1999/xlink" x="0px" y="0px"
	 viewBox="0 0 595.3 841.9" style="enable-background:new 0 0 595.3 841.9;" xml:space="preserve">
<style type="text/css">
	.st0{fill:#5669B1;}
	.st1{fill:#15BCD5;}
</style>
<circle class="st0" cx="127.3" cy="403.5" r="83.2"/>
<g>
	
		<image style="overflow:visible;enable-background:new    ;" width="383" height="538" xlink:href="43B92B84.png"  transform="matrix(0.2387 0 0 0.2378 105.636 395.0752)">
	</image>
	<g>
		<polygon class="st1" points="127.3,409.6 175.4,409.6 175.4,493.9 		"/>
	</g>
</g>
<polygon class="st1" points="528.1,408.8 528.1,460.5 437.5,460.5 "/>
<path class="st1" d="M223.7,380.9h103.1v54.3c0,0,0,43.9-48.8,49.3c0,0-45.7,7.2-54.3-48.8L223.7,380.9L223.7,380.9z"/>
<g>
	
		<image style="overflow:visible;opacity:0.75;enable-background:new    ;" width="592" height="283" xlink:href="43B92B85.png"  transform="matrix(0.2376 0 0 0.2349 409.236 366.2752)">
	</image>
	<g>
		<rect x="430.9" y="380.9" class="st0" width="97.2" height="22.6"/>
	</g>
</g>
<g>
	
		<image style="overflow:visible;opacity:0.75;enable-background:new    ;" width="592" height="292" xlink:href="43B92B83.png"  transform="matrix(0.2376 0 0 0.2367 409.236 445.9552)">
	</image>
	<g>
		<rect x="430.9" y="460.5" class="st0" width="97.2" height="25.3"/>
	</g>
</g>
<rect x="354.4" y="380.9" class="st1" width="36.6" height="24.4"/>
<g>
	
		<image style="overflow:visible;opacity:0.75;enable-background:new    ;" width="308" height="571" xlink:href="43B92B8C.png"  transform="matrix(0.2345 0 0 0.2387 336.276 378.5152)">
	</image>
	<g>
		<rect x="358.1" y="393.1" class="st0" width="28.5" height="92.7"/>
	</g>
</g>
</svg>
