<?xml version="1.0" encoding="utf-8"?>
<!-- Generator: Adobe Illustrator 21.1.0, SVG Export Plug-In . SVG Version: 6.00 Build 0)  -->
<svg version="1.1" id="Layer_1" xmlns="http://www.w3.org/2000/svg" xmlns:xlink="http://www.w3.org/1999/xlink" x="0px" y="0px"
	 viewBox="0 0 511.5 196.5" style="enable-background:new 0 0 511.5 196.5;" xml:space="preserve">
<style type="text/css">
	.st0{fill:#5069E2;}
	.st1{fill:#03BCD5;}
</style>
<circle class="st0" cx="91.3" cy="91.5" r="83.2"/>
<g>
	
		<image style="overflow:visible;enable-background:new    ;" width="383" height="538" xlink:href="5C4F30C3.png"  transform="matrix(0.2387 0 0 0.2378 69.636 83.0752)">
	</image>
	<g>
		<polygon class="st1" points="91.3,97.6 139.4,97.6 139.4,181.9 		"/>
	</g>
</g>
<polygon class="st1" points="492.1,96.8 492.1,148.5 401.5,148.5 "/>
<path class="st1" d="M187.7,68.9h103.1v54.3c0,0,0,43.9-48.8,49.3c0,0-45.7,7.2-54.3-48.8L187.7,68.9L187.7,68.9z"/>
<g>
	
		<image style="overflow:visible;opacity:0.75;enable-background:new    ;" width="592" height="283" xlink:href="5C4F30C1.png"  transform="matrix(0.2376 0 0 0.2349 373.236 54.2752)">
	</image>
	<g>
		<rect x="394.9" y="68.9" class="st0" width="97.2" height="22.6"/>
	</g>
</g>
<g>
	
		<image style="overflow:visible;opacity:0.75;enable-background:new    ;" width="592" height="292" xlink:href="5C4F30C7.png"  transform="matrix(0.2376 0 0 0.2367 373.236 133.9552)">
	</image>
	<g>
		<rect x="394.9" y="148.5" class="st0" width="97.2" height="25.3"/>
	</g>
</g>
<rect x="318.4" y="68.9" class="st1" width="36.6" height="24.4"/>
<g>
	
		<image style="overflow:visible;opacity:0.75;enable-background:new    ;" width="308" height="571" xlink:href="5C4F30C0.png"  transform="matrix(0.2345 0 0 0.2387 300.276 66.5152)">
	</image>
	<g>
		<rect x="322.1" y="81.1" class="st0" width="28.5" height="92.7"/>
	</g>
</g>
</svg>
